<?xml version="1.0" standalone="no"?>
<!DOCTYPE svg PUBLIC "-//W3C//DTD SVG 20010904//EN"
 "http://www.w3.org/TR/2001/REC-SVG-20010904/DTD/svg10.dtd">
<svg version="1.0" xmlns="http://www.w3.org/2000/svg"
 width="300.000000pt" height="300.000000pt" viewBox="0 0 300.000000 300.000000"
 preserveAspectRatio="xMidYMid meet">
<metadata>
Created by potrace 1.16, written by Peter Selinger 2001-2019
</metadata>
<g transform="translate(0.000000,300.000000) scale(0.060000,-0.060000)"
fill="#000000" stroke="none">
<path d="M2948 3661 l-33 -29 -3 -126 -4 -126 -129 0 -130 0 3 102 c3 98 4
103 28 115 22 11 17 13 -50 12 -62 0 -71 -2 -52 -11 12 -6 25 -22 28 -34 8
-33 -1 -445 -10 -466 -5 -10 -14 -18 -22 -18 -13 0 -198 184 -274 272 -29 34
-30 39 -17 58 40 57 154 174 181 186 30 13 28 13 -38 14 -60 0 -67 -2 -56 -15
8 -10 9 -19 3 -27 -105 -138 -141 -175 -156 -166 -14 7 -17 25 -17 93 0 46 5
87 10 90 17 10 46 -4 58 -28 10 -20 11 -19 11 14 1 36 0 37 -40 41 -22 2 -62
1 -87 -3 -26 -3 -41 -7 -33 -8 11 -1 8 -7 -8 -25 -12 -13 -25 -42 -28 -64 -5
-35 -1 -44 31 -79 l36 -40 0 -117 c0 -112 -1 -117 -22 -126 -17 -6 -2 -9 52
-8 46 0 65 3 50 7 -24 7 -25 10 -28 104 -1 54 1 97 6 97 14 0 79 -75 87 -100
17 -55 -17 -116 -78 -139 -39 -15 -63 -14 -103 5 -60 29 -82 110 -48 176 9 18
11 27 4 23 -17 -11 -40 -69 -40 -102 0 -42 32 -94 71 -115 96 -52 239 11 239
106 0 14 3 26 8 26 4 0 29 -25 55 -56 27 -30 74 -73 105 -96 50 -37 61 -41
126 -44 62 -3 66 -2 36 7 -64 18 -62 16 -43 46 14 21 19 53 22 150 l3 123 129
0 129 0 0 -88 c0 -88 -8 -114 -40 -125 -8 -3 19 -6 60 -6 67 -1 72 1 50 12
l-25 13 -3 194 c-4 231 1 274 33 306 36 35 3 31 -37 -5z"/>
<path d="M1696 2740 c-46 -14 -104 -78 -127 -140 -27 -69 -38 -238 -19 -295 9
-28 15 -34 22 -24 7 10 8 8 3 -7 -7 -28 51 -80 100 -90 117 -22 209 64 236
220 24 144 -7 273 -75 315 -39 24 -101 33 -140 21z m74 -119 c5 -11 10 -29 10
-40 0 -13 7 -21 18 -21 12 0 13 -3 5 -8 -7 -4 -15 -37 -19 -72 -13 -132 -48
-194 -91 -159 -21 18 -14 206 11 264 24 56 48 69 66 36z"/>
<path d="M1977 2726 c-9 -23 -31 -512 -24 -530 6 -14 19 -16 69 -14 l63 3 5
99 c6 113 2 114 88 -16 29 -42 55 -79 60 -82 10 -6 102 71 102 85 0 6 -29 51
-65 101 -36 50 -65 95 -65 101 0 5 28 41 62 81 34 39 69 79 77 89 13 16 11 21
-24 57 -22 22 -44 40 -49 40 -6 0 -48 -37 -94 -82 l-84 -83 4 80 3 80 -61 3
c-47 2 -63 -1 -67 -12z"/>
<path d="M2525 2730 c-10 -17 -23 -199 -27 -385 l-3 -160 65 0 65 0 3 103 3
103 23 -28 c12 -15 46 -63 75 -105 28 -43 54 -78 57 -78 9 0 94 83 94 92 0 5
-29 51 -65 103 -36 51 -65 95 -65 98 0 3 34 44 75 92 41 47 75 89 75 93 0 11
-74 82 -85 82 -5 0 -47 -37 -93 -82 l-83 -83 3 80 3 80 -57 3 c-34 2 -59 -1
-63 -8z"/>
<path d="M2944 2729 c-8 -14 -44 -530 -38 -541 3 -5 36 -8 73 -8 l68 0 5 101
c3 55 10 105 15 110 6 6 29 13 52 16 l42 6 -2 -109 -2 -109 71 -3 70 -3 6 148
c4 81 9 206 12 276 l6 128 -68 -3 c-52 -2 -69 -7 -71 -18 -1 -8 -5 -54 -8
-102 l-7 -88 -54 0 -55 0 7 105 7 105 -61 0 c-35 0 -64 -5 -68 -11z"/>
<path d="M4018 2731 c-70 -4 -129 -8 -132 -11 -12 -12 -32 -403 -27 -528 1
-14 116 -12 299 4 l62 6 0 65 0 65 -112 -3 -113 -2 3 29 c2 16 5 30 7 32 1 2
34 7 71 13 124 18 116 13 111 72 l-4 52 -91 -3 c-90 -2 -92 -2 -92 20 0 13 4
28 8 34 4 7 58 17 120 24 l112 13 0 63 0 64 -47 -2 c-27 -1 -105 -4 -175 -7z"/>
<path d="M845 2716 c-58 -26 -105 -101 -105 -167 0 -54 26 -92 99 -142 72 -49
91 -77 71 -102 -17 -20 -47 -18 -99 5 -24 11 -47 20 -52 20 -5 0 -18 -19 -30
-41 -25 -51 -19 -60 64 -89 74 -26 132 -25 187 3 55 27 83 74 84 138 1 58 -17
86 -99 149 -32 25 -63 53 -69 62 -13 22 3 72 26 76 13 3 17 -6 20 -40 l3 -43
60 0 60 0 0 63 c0 59 -3 66 -33 93 -28 26 -40 29 -95 29 -34 -1 -75 -7 -92
-14z"/>
<path d="M1188 2721 c-26 -4 -49 -9 -52 -12 -5 -4 -36 -426 -36 -486 l0 -33
65 0 65 0 0 80 c0 44 4 80 9 80 5 0 16 3 24 6 10 4 28 -21 61 -85 26 -50 50
-91 53 -91 15 0 103 63 103 74 0 6 -17 43 -37 83 l-38 72 27 28 c78 81 77 237
-3 278 -29 16 -151 18 -241 6z"/>
<path d="M3377 2723 c-3 -5 -7 -98 -10 -208 -4 -116 -3 -190 2 -175 7 20 9 16
9 -25 1 -46 0 -48 -11 -25 -11 23 -12 21 -15 -29 -5 -81 -2 -85 68 -78 32 3
63 8 69 12 6 3 11 40 12 83 l0 77 22 -60 c21 -58 23 -60 57 -60 32 0 37 4 68
60 l32 60 -1 -75 c0 -41 0 -81 0 -87 1 -9 22 -13 71 -13 l70 0 0 253 c0 243
-1 254 -21 276 -16 17 -30 21 -62 19 l-42 -3 -50 -117 c-27 -65 -53 -114 -56
-110 -4 4 -19 50 -34 102 -31 113 -47 129 -122 130 -28 0 -54 -3 -56 -7z"/>
<path d="M4358 2721 c-26 -4 -49 -9 -51 -11 -3 -3 -10 -86 -16 -185 -6 -99
-14 -215 -18 -257 l-6 -78 67 0 66 0 0 79 c0 73 2 79 22 85 28 7 28 7 79 -89
23 -44 44 -82 45 -84 4 -4 72 36 96 57 16 14 15 20 -24 94 l-41 79 31 32 c40
41 52 75 52 145 0 66 -25 117 -66 132 -28 11 -161 11 -236 1z"/>
</g>
</svg>
